<svg xmlns="http://www.w3.org/2000/svg" width="512" height="512" viewBox="0 0 512 512" fill="none">
  <defs>
    <linearGradient id="bg" x1="72" x2="438" y1="56" y2="456" gradientUnits="userSpaceOnUse">
      <stop stop-color="#232428" />
      <stop offset="1" stop-color="#09090B" />
    </linearGradient>
    <linearGradient id="panel" x1="98" x2="428" y1="76" y2="420" gradientUnits="userSpaceOnUse">
      <stop stop-color="#32343A" stop-opacity=".22" />
      <stop offset="1" stop-color="#060608" stop-opacity=".03" />
    </linearGradient>
    <linearGradient id="orangeStroke" x1="142" x2="376" y1="108" y2="410" gradientUnits="userSpaceOnUse">
      <stop stop-color="#FFBE4A" />
      <stop offset=".38" stop-color="#FF8A00" />
      <stop offset="1" stop-color="#FF6400" />
    </linearGradient>
    <linearGradient id="orangeFill" x1="0" x2="1" y1="0" y2="1">
      <stop stop-color="#FFBA43" />
      <stop offset="1" stop-color="#FF6A00" />
    </linearGradient>
    <linearGradient id="metal" x1="138" x2="374" y1="178" y2="334" gradientUnits="userSpaceOnUse">
      <stop stop-color="#50535A" />
      <stop offset=".45" stop-color="#1E2024" />
      <stop offset="1" stop-color="#0A0B0D" />
    </linearGradient>
    <linearGradient id="bar" x1="180" x2="332" y1="215" y2="294" gradientUnits="userSpaceOnUse">
      <stop stop-color="#4B4D53" />
      <stop offset="1" stop-color="#101114" />
    </linearGradient>
    <filter id="shadow" width="528" height="528" x="-8" y="-6" color-interpolation-filters="sRGB" filterUnits="userSpaceOnUse">
      <feDropShadow dx="0" dy="8" flood-color="#000" flood-opacity=".4" stdDeviation="12" />
    </filter>
    <filter id="glow" width="352" height="356" x="80" y="74" color-interpolation-filters="sRGB" filterUnits="userSpaceOnUse">
      <feDropShadow dx="0" dy="8" flood-color="#FF7A00" flood-opacity=".26" stdDeviation="10" />
      <feDropShadow dx="0" dy="0" flood-color="#FFB347" flood-opacity=".18" stdDeviation="3.5" />
    </filter>
    <filter id="liftShadow" width="298" height="164" x="107" y="174" color-interpolation-filters="sRGB" filterUnits="userSpaceOnUse">
      <feDropShadow dx="0" dy="8" flood-color="#000" flood-opacity=".4" stdDeviation="9" />
    </filter>
  </defs>
  <g filter="url(#shadow)">
    <rect width="448" height="448" x="32" y="32" fill="url(#bg)" rx="90" />
    <rect width="436" height="436" x="38" y="38" fill="url(#panel)" rx="84" stroke="#3A3D45" stroke-opacity=".26" />
  </g>
  <g filter="url(#glow)">
    <path
      stroke="url(#orangeStroke)"
      stroke-linecap="round"
      stroke-linejoin="round"
      stroke-width="24"
      d="M256 96 370 162v188L256 416 142 350V162l114-66Z"
    />
    <path
      stroke="#FFD37B"
      stroke-linecap="round"
      stroke-linejoin="round"
      stroke-opacity=".45"
      stroke-width="4"
      d="M256 108 360 168v176L256 404 152 344V168l104-60Z"
    />
  </g>
  <g filter="url(#liftShadow)">
    <rect width="136" height="18" x="188" y="247" fill="url(#bar)" rx="7" />
    <rect width="18" height="46" x="153" y="233" fill="url(#orangeFill)" rx="6" />
    <rect width="18" height="46" x="341" y="233" fill="url(#orangeFill)" rx="6" />
    <rect width="24" height="68" x="170" y="222" fill="url(#metal)" rx="7" />
    <rect width="28" height="98" x="140" y="207" fill="url(#metal)" rx="8" />
    <rect width="16" height="54" x="123" y="229" fill="url(#metal)" rx="5" />
    <rect width="24" height="68" x="318" y="222" fill="url(#metal)" rx="7" />
    <rect width="28" height="98" x="344" y="207" fill="url(#metal)" rx="8" />
    <rect width="16" height="54" x="373" y="229" fill="url(#metal)" rx="5" />
    <rect width="136" height="18" x="188" y="247" fill="none" rx="7" stroke="#7C818D" stroke-opacity=".18" />
    <path stroke="#F1F3F8" stroke-linecap="round" stroke-opacity=".16" stroke-width="3" d="M180 221v70" />
    <path stroke="#F1F3F8" stroke-linecap="round" stroke-opacity=".16" stroke-width="3" d="M331 221v70" />
    <path stroke="#F1F3F8" stroke-linecap="round" stroke-opacity=".1" stroke-width="3" d="M196 247h120" />
  </g>
</svg>
