<svg xmlns="http://www.w3.org/2000/svg" width="512" height="512" viewBox="0 0 512 512" fill="none">
  <defs>
    <linearGradient id="bg" x1="60" x2="446" y1="46" y2="462" gradientUnits="userSpaceOnUse">
      <stop stop-color="#FFFFFF" />
      <stop offset="1" stop-color="#ECECEE" />
    </linearGradient>
    <linearGradient id="panel" x1="88" x2="422" y1="62" y2="428" gradientUnits="userSpaceOnUse">
      <stop stop-color="#FFFFFF" stop-opacity=".9" />
      <stop offset="1" stop-color="#E9EAF0" stop-opacity=".5" />
    </linearGradient>
    <linearGradient id="orangeStroke" x1="146" x2="376" y1="110" y2="408" gradientUnits="userSpaceOnUse">
      <stop stop-color="#FFBC45" />
      <stop offset=".4" stop-color="#FF8A00" />
      <stop offset="1" stop-color="#FF6900" />
    </linearGradient>
    <linearGradient id="orangeFill" x1="0" x2="1" y1="0" y2="1">
      <stop stop-color="#FFB33C" />
      <stop offset="1" stop-color="#FF6C00" />
    </linearGradient>
    <linearGradient id="metal" x1="136" x2="374" y1="179" y2="336" gradientUnits="userSpaceOnUse">
      <stop stop-color="#42454C" />
      <stop offset=".5" stop-color="#16181C" />
      <stop offset="1" stop-color="#020305" />
    </linearGradient>
    <linearGradient id="bar" x1="186" x2="326" y1="220" y2="294" gradientUnits="userSpaceOnUse">
      <stop stop-color="#4A4D54" />
      <stop offset="1" stop-color="#0F1012" />
    </linearGradient>
    <filter id="shadow" width="528" height="528" x="-8" y="-4" color-interpolation-filters="sRGB" filterUnits="userSpaceOnUse">
      <feDropShadow dx="0" dy="10" flood-color="#000" flood-opacity=".18" stdDeviation="12" />
    </filter>
    <filter id="glow" width="344" height="348" x="84" y="76" color-interpolation-filters="sRGB" filterUnits="userSpaceOnUse">
      <feDropShadow dx="0" dy="8" flood-color="#FF8A00" flood-opacity=".18" stdDeviation="7" />
    </filter>
    <filter id="liftShadow" width="298" height="164" x="107" y="174" color-interpolation-filters="sRGB" filterUnits="userSpaceOnUse">
      <feDropShadow dx="0" dy="8" flood-color="#000" flood-opacity=".2" stdDeviation="8" />
    </filter>
  </defs>
  <g filter="url(#shadow)">
    <rect width="448" height="448" x="32" y="32" fill="url(#bg)" rx="90" />
    <rect width="436" height="436" x="38" y="38" fill="url(#panel)" rx="84" stroke="#D6D8DE" stroke-opacity=".78" />
  </g>
  <g filter="url(#glow)">
    <path
      stroke="url(#orangeStroke)"
      stroke-linecap="round"
      stroke-linejoin="round"
      stroke-width="24"
      d="M256 96 370 162v188L256 416 142 350V162l114-66Z"
    />
    <path
      stroke="#FFF5D8"
      stroke-linecap="round"
      stroke-linejoin="round"
      stroke-opacity=".9"
      stroke-width="4"
      d="M256 108 360 168v176L256 404 152 344V168l104-60Z"
    />
  </g>
  <g filter="url(#liftShadow)">
    <rect width="136" height="18" x="188" y="247" fill="url(#bar)" rx="7" />
    <rect width="18" height="46" x="153" y="233" fill="url(#orangeFill)" rx="6" />
    <rect width="18" height="46" x="341" y="233" fill="url(#orangeFill)" rx="6" />
    <rect width="24" height="68" x="170" y="222" fill="url(#metal)" rx="7" />
    <rect width="28" height="98" x="140" y="207" fill="url(#metal)" rx="8" />
    <rect width="16" height="54" x="123" y="229" fill="url(#metal)" rx="5" />
    <rect width="24" height="68" x="318" y="222" fill="url(#metal)" rx="7" />
    <rect width="28" height="98" x="344" y="207" fill="url(#metal)" rx="8" />
    <rect width="16" height="54" x="373" y="229" fill="url(#metal)" rx="5" />
    <rect width="136" height="18" x="188" y="247" fill="none" rx="7" stroke="#F5F7FA" stroke-opacity=".18" />
    <path stroke="#FFF" stroke-linecap="round" stroke-opacity=".24" stroke-width="3" d="M180 221v70" />
    <path stroke="#FFF" stroke-linecap="round" stroke-opacity=".24" stroke-width="3" d="M331 221v70" />
    <path stroke="#FFF" stroke-linecap="round" stroke-opacity=".13" stroke-width="3" d="M196 247h120" />
  </g>
</svg>
