<svg xmlns="http://www.w3.org/2000/svg" width="512" height="512" viewBox="0 0 512 512" fill="none">
  <defs>
    <linearGradient id="bg" x1="44" x2="468" y1="34" y2="486" gradientUnits="userSpaceOnUse">
      <stop stop-color="#202228" />
      <stop offset="1" stop-color="#08090C" />
    </linearGradient>
    <radialGradient id="wash" cx="0" cy="0" r="1" gradientTransform="matrix(0 230 -230 0 256 256)" gradientUnits="userSpaceOnUse">
      <stop stop-color="#2C2E35" stop-opacity=".24" />
      <stop offset="1" stop-color="#0A0B0D" stop-opacity="0" />
    </radialGradient>
    <linearGradient id="orangeStroke" x1="128" x2="386" y1="84" y2="430" gradientUnits="userSpaceOnUse">
      <stop stop-color="#FFBC45" />
      <stop offset=".4" stop-color="#FF8900" />
      <stop offset="1" stop-color="#FF6600" />
    </linearGradient>
    <linearGradient id="orangeFill" x1="0" x2="1" y1="0" y2="1">
      <stop stop-color="#FFB33C" />
      <stop offset="1" stop-color="#FF6800" />
    </linearGradient>
    <linearGradient id="metal" x1="118" x2="394" y1="171" y2="350" gradientUnits="userSpaceOnUse">
      <stop stop-color="#50535A" />
      <stop offset=".45" stop-color="#1D1F23" />
      <stop offset="1" stop-color="#0A0B0D" />
    </linearGradient>
    <linearGradient id="bar" x1="176" x2="336" y1="220" y2="296" gradientUnits="userSpaceOnUse">
      <stop stop-color="#4D5057" />
      <stop offset="1" stop-color="#111216" />
    </linearGradient>
    <filter id="glow" width="360" height="366" x="76" y="70" color-interpolation-filters="sRGB" filterUnits="userSpaceOnUse">
      <feDropShadow dx="0" dy="10" flood-color="#FF7A00" flood-opacity=".3" stdDeviation="10" />
      <feDropShadow dx="0" dy="0" flood-color="#FFB347" flood-opacity=".16" stdDeviation="4" />
    </filter>
    <filter id="liftShadow" width="320" height="172" x="96" y="180" color-interpolation-filters="sRGB" filterUnits="userSpaceOnUse">
      <feDropShadow dx="0" dy="10" flood-color="#000" flood-opacity=".38" stdDeviation="10" />
    </filter>
  </defs>
  <rect width="512" height="512" fill="url(#bg)" />
  <rect width="512" height="512" fill="url(#wash)" />
  <g filter="url(#glow)">
    <path
      stroke="url(#orangeStroke)"
      stroke-linecap="round"
      stroke-linejoin="round"
      stroke-width="28"
      d="M256 88 380 160v192L256 424 132 352V160l124-72Z"
    />
    <path
      stroke="#FFD37B"
      stroke-linecap="round"
      stroke-linejoin="round"
      stroke-opacity=".42"
      stroke-width="4"
      d="M256 102 368 168v176L256 410 144 344V168l112-66Z"
    />
  </g>
  <g filter="url(#liftShadow)">
    <rect width="152" height="20" x="180" y="246" fill="url(#bar)" rx="8" />
    <rect width="18" height="52" x="145" y="230" fill="url(#orangeFill)" rx="6" />
    <rect width="18" height="52" x="349" y="230" fill="url(#orangeFill)" rx="6" />
    <rect width="28" height="76" x="162" y="218" fill="url(#metal)" rx="8" />
    <rect width="32" height="106" x="128" y="203" fill="url(#metal)" rx="8" />
    <rect width="18" height="58" x="109" y="227" fill="url(#metal)" rx="6" />
    <rect width="28" height="76" x="322" y="218" fill="url(#metal)" rx="8" />
    <rect width="32" height="106" x="352" y="203" fill="url(#metal)" rx="8" />
    <rect width="18" height="58" x="385" y="227" fill="url(#metal)" rx="6" />
    <path stroke="#FFF" stroke-linecap="round" stroke-opacity=".14" stroke-width="3" d="M174 219v74" />
    <path stroke="#FFF" stroke-linecap="round" stroke-opacity=".14" stroke-width="3" d="M336 219v74" />
  </g>
</svg>
